<svg fill="#000000" xmlns="http://www.w3.org/2000/svg"  viewBox="0 0 64 64" width="64px" height="64px"><path d="M 13 6 C 9.1456661 6 6 9.1456661 6 13 L 6 51 C 6 54.854334 9.1456661 58 13 58 L 32 58 L 39 58 L 51 58 C 54.854334 58 58 54.854334 58 51 L 58 13 C 58 9.1456661 54.854334 6 51 6 L 13 6 z M 13 8 L 51 8 C 53.773666 8 56 10.226334 56 13 L 56 51 C 56 53.773666 53.773666 56 51 56 L 40 56 L 40 43 L 46 43 A 1.0001 1.0001 0 0 0 46.990234 42.140625 L 47.990234 35.140625 A 1.0001 1.0001 0 0 0 47 34 L 40.013672 34 C 40.008042 33.407584 40 32.889481 40 32 C 40 30.622133 40.544574 30.239884 41.185547 29.945312 C 41.826519 29.650741 42.509766 29.654297 42.509766 29.654297 A 1.0001 1.0001 0 0 0 42.537109 29.654297 L 47.275391 29.654297 A 1.0001 1.0001 0 0 0 48.275391 28.654297 L 48.275391 21.568359 A 1.0001 1.0001 0 0 0 47.494141 20.59375 C 47.494141 20.59375 45.573394 20.163342 43.15625 20.074219 C 40.739106 19.985099 37.767392 20.178945 35.515625 21.697266 C 30.985179 24.753143 31 29.767769 31 32 L 31 34 L 25 34 A 1.0001 1.0001 0 0 0 24 35 L 24 42 A 1.0001 1.0001 0 0 0 25 43 L 31 43 L 31 56 L 13 56 C 10.226334 56 8 53.773666 8 51 L 8 13 C 8 10.226334 10.226334 8 13 8 z M 11.894531 11.943359 A 1.0001 1.0001 0 0 0 10.910156 12.957031 L 10.910156 14.957031 A 1.0001 1.0001 0 1 0 12.910156 14.957031 L 12.910156 12.957031 A 1.0001 1.0001 0 0 0 11.894531 11.943359 z M 16.914062 11.943359 A 1.0001 1.0001 0 0 0 15.929688 12.957031 L 15.929688 14.957031 A 1.0001 1.0001 0 1 0 17.929688 14.957031 L 17.929688 12.957031 A 1.0001 1.0001 0 0 0 16.914062 11.943359 z M 21.933594 11.943359 A 1.0001 1.0001 0 0 0 20.949219 12.957031 L 20.949219 14.957031 A 1.0001 1.0001 0 1 0 22.949219 14.957031 L 22.949219 12.957031 A 1.0001 1.0001 0 0 0 21.933594 11.943359 z M 26.953125 11.943359 A 1.0001 1.0001 0 0 0 25.96875 12.957031 L 25.96875 14.957031 A 1.0001 1.0001 0 1 0 27.96875 14.957031 L 27.96875 12.957031 A 1.0001 1.0001 0 0 0 26.953125 11.943359 z M 31.974609 11.943359 A 1.0001 1.0001 0 0 0 30.988281 12.957031 L 30.988281 14.957031 A 1.0001 1.0001 0 1 0 32.988281 14.957031 L 32.988281 12.957031 A 1.0001 1.0001 0 0 0 31.974609 11.943359 z M 36.994141 11.943359 A 1.0001 1.0001 0 0 0 36.009766 12.957031 L 36.009766 14.957031 A 1.0001 1.0001 0 1 0 38.009766 14.957031 L 38.009766 12.957031 A 1.0001 1.0001 0 0 0 36.994141 11.943359 z M 42.013672 11.943359 A 1.0001 1.0001 0 0 0 41.029297 12.957031 L 41.029297 14.957031 A 1.0001 1.0001 0 1 0 43.029297 14.957031 L 43.029297 12.957031 A 1.0001 1.0001 0 0 0 42.013672 11.943359 z M 47.033203 11.943359 A 1.0001 1.0001 0 0 0 46.048828 12.957031 L 46.048828 14.957031 A 1.0001 1.0001 0 1 0 48.048828 14.957031 L 48.048828 12.957031 A 1.0001 1.0001 0 0 0 47.033203 11.943359 z M 52.054688 11.943359 A 1.0001 1.0001 0 0 0 51.068359 12.957031 L 51.068359 14.957031 A 1.0001 1.0001 0 1 0 53.068359 14.957031 L 53.068359 12.957031 A 1.0001 1.0001 0 0 0 52.054688 11.943359 z M 43.083984 22.072266 C 44.866976 22.138006 45.760342 22.349388 46.275391 22.451172 L 46.275391 27.654297 L 42.564453 27.654297 C 42.564453 27.654297 41.47909 27.610727 40.351562 28.128906 C 39.22404 28.647084 38 29.936867 38 32 C 38 33.354913 38.020501 34.329755 38.019531 34.998047 A 1.0001 1.0001 0 0 0 39.019531 36 L 45.847656 36 L 45.132812 41 L 39 41 A 1.0001 1.0001 0 0 0 38 42 L 38 56 L 33 56 L 33 42 A 1.0001 1.0001 0 0 0 32 41 L 26 41 L 26 36 L 32 36 A 1.0001 1.0001 0 0 0 33 35 L 33 32 C 33 29.742231 32.92926 25.853591 36.632812 23.355469 C 38.234046 22.27579 40.863379 21.990389 43.083984 22.072266 z"/></svg>