<svg fill="#000000" xmlns="http://www.w3.org/2000/svg"  viewBox="0 0 64 64" width="64px" height="64px"><path d="M 32 2 C 15.457031 2 2 14.492188 2 29.851563 C 2 38.167969 5.933594 45.941406 12.808594 51.257813 L 12.808594 61 C 12.808594 61.355469 12.996094 61.679688 13.296875 61.859375 C 13.457031 61.953125 13.632813 62 13.808594 62 C 13.972656 62 14.140625 61.957031 14.289063 61.875 L 23.8125 56.652344 C 26.46875 57.347656 29.222656 57.703125 32 57.703125 C 48.542969 57.703125 62 45.210938 62 29.851563 C 62 14.492188 48.542969 2 32 2 Z M 32 4 C 47.4375 4 60 15.597656 60 29.851563 C 60 44.105469 47.4375 55.703125 32 55.703125 C 29.265625 55.703125 26.554688 55.339844 23.949219 54.617188 C 23.695313 54.546875 23.425781 54.578125 23.199219 54.703125 L 14.808594 59.3125 L 14.808594 50.761719 C 14.808594 50.445313 14.660156 50.148438 14.40625 49.960938 C 7.792969 45.023438 4 37.691406 4 29.851563 C 4 15.597656 16.5625 4 32 4 Z M 31.957031 8.003906 C 28.144531 8.019531 24.320313 8.871094 20.949219 10.5 C 20.449219 10.738281 20.242188 11.335938 20.480469 11.832031 C 20.652344 12.191406 21.011719 12.402344 21.382813 12.402344 C 21.527344 12.402344 21.675781 12.367188 21.816406 12.300781 C 25.957031 10.304688 30.847656 9.578125 35.457031 10.25 C 35.996094 10.335938 36.515625 9.949219 36.59375 9.402344 C 36.671875 8.855469 36.292969 8.347656 35.746094 8.269531 C 34.496094 8.085938 33.226563 8 31.957031 8.003906 Z M 40.28125 9.445313 C 39.894531 9.464844 39.535156 9.714844 39.394531 10.105469 C 39.210938 10.625 39.476563 11.195313 40 11.382813 C 41.003906 11.746094 41.992188 12.183594 42.9375 12.683594 C 43.085938 12.761719 43.246094 12.796875 43.402344 12.796875 C 43.761719 12.796875 44.105469 12.605469 44.285156 12.265625 C 44.546875 11.777344 44.359375 11.171875 43.871094 10.914063 C 42.847656 10.371094 41.769531 9.894531 40.675781 9.5 C 40.546875 9.453125 40.414063 9.4375 40.28125 9.445313 Z M 28.933594 21.332031 C 28.660156 21.332031 28.398438 21.449219 28.210938 21.644531 L 12.359375 38.472656 C 12.023438 38.832031 11.996094 39.382813 12.296875 39.769531 C 12.492188 40.023438 12.785156 40.160156 13.089844 40.160156 C 13.25 40.160156 13.414063 40.121094 13.566406 40.039063 L 27.296875 32.53125 L 34.152344 39.84375 C 34.339844 40.046875 34.605469 40.160156 34.882813 40.160156 C 35.15625 40.160156 35.421875 40.046875 35.609375 39.847656 L 51.464844 23.019531 C 51.800781 22.660156 51.824219 22.109375 51.523438 21.71875 C 51.21875 21.328125 50.679688 21.21875 50.25 21.457031 L 36.691406 28.964844 L 29.660156 21.640625 C 29.472656 21.445313 29.195313 21.378906 28.933594 21.332031 Z M 28.941406 23.78125 L 35.78125 30.902344 C 36.09375 31.230469 36.589844 31.304688 36.984375 31.085938 L 45.609375 26.3125 L 34.882813 37.699219 L 28.226563 30.597656 C 28.03125 30.394531 27.765625 30.28125 27.496094 30.28125 C 27.332031 30.28125 27.167969 30.324219 27.015625 30.40625 L 18.128906 35.265625 Z M 22.058594 44.578125 C 21.671875 44.519531 21.273438 44.6875 21.050781 45.035156 L 20.015625 46.699219 C 19.726563 47.167969 19.867188 47.785156 20.335938 48.078125 C 20.5 48.179688 20.683594 48.230469 20.863281 48.230469 C 21.199219 48.230469 21.523438 48.0625 21.714844 47.757813 L 22.75 46.09375 C 23.042969 45.628906 22.898438 45.011719 22.433594 44.71875 C 22.3125 44.644531 22.1875 44.601563 22.058594 44.578125 Z M 41.941406 44.578125 C 41.8125 44.601563 41.6875 44.644531 41.566406 44.71875 C 41.101563 45.011719 40.957031 45.628906 41.25 46.097656 L 42.285156 47.757813 C 42.472656 48.0625 42.800781 48.230469 43.136719 48.230469 C 43.316406 48.230469 43.5 48.179688 43.664063 48.078125 C 44.132813 47.785156 44.273438 47.167969 43.984375 46.699219 L 42.949219 45.035156 C 42.726563 44.683594 42.328125 44.519531 41.941406 44.578125 Z M 37.34375 46.441406 C 37.214844 46.425781 37.082031 46.4375 36.949219 46.472656 C 36.417969 46.628906 36.113281 47.183594 36.265625 47.714844 L 36.800781 49.566406 C 36.929688 50.003906 37.328125 50.285156 37.761719 50.285156 C 37.855469 50.285156 37.945313 50.273438 38.039063 50.25 C 38.570313 50.09375 38.875 49.539063 38.722656 49.011719 L 38.1875 47.15625 C 38.074219 46.757813 37.730469 46.488281 37.34375 46.441406 Z M 26.65625 46.441406 C 26.269531 46.488281 25.929688 46.757813 25.8125 47.15625 L 25.277344 49.011719 C 25.125 49.542969 25.429688 50.097656 25.960938 50.25 C 26.054688 50.277344 26.144531 50.289063 26.238281 50.289063 C 26.671875 50.289063 27.070313 50.003906 27.199219 49.566406 L 27.734375 47.714844 C 27.886719 47.183594 27.582031 46.628906 27.050781 46.472656 C 26.917969 46.4375 26.785156 46.429688 26.65625 46.441406 Z M 32 47.074219 C 31.449219 47.074219 31 47.519531 31 48.074219 L 31 49.988281 C 31 50.542969 31.449219 50.988281 32 50.988281 C 32.550781 50.988281 33 50.542969 33 49.988281 L 33 48.074219 C 33 47.519531 32.550781 47.074219 32 47.074219 Z"/></svg>